<svg width="18" height="20" viewBox="0 0 18 20" fill="none" xmlns="http://www.w3.org/2000/svg">
<path fill-rule="evenodd" clip-rule="evenodd" d="M2.72281 16H14.2772C16.1056 16 17.1492 14.1609 16.0522 12.8721C15.5666 12.3016 15.2673 11.6249 15.1867 10.9153L15.0227 9.46972C14.8512 9.48956 14.6767 9.49976 14.4999 9.49976C12.0147 9.49976 9.99994 7.48504 9.99994 4.99976C9.99994 4.02889 10.3074 3.12982 10.8303 2.39463C10.8102 2.38755 10.7901 2.38056 10.7699 2.37366V2.26995C10.7699 1.01629 9.75366 0 8.5 0C7.24634 0 6.23005 1.01629 6.23005 2.26995V2.37366C4.08766 3.10719 2.5016 4.85063 2.26046 6.97519L1.81328 10.9153C1.73274 11.6249 1.43344 12.3016 0.947786 12.8721C-0.149243 14.1609 0.894434 16 2.72281 16ZM17.5 4.99976C17.5 6.65661 16.1569 7.99976 14.5 7.99976C12.8431 7.99976 11.5 6.65661 11.5 4.99976C11.5 3.3429 12.8431 1.99976 14.5 1.99976C16.1569 1.99976 17.5 3.3429 17.5 4.99976ZM8.5 20C9.85652 20 11.0147 19.1992 11.4721 18.0715C11.4912 18.0245 11.5 17.974 11.5 17.9232C11.5 17.6894 11.3104 17.4998 11.0765 17.4998H5.92349C5.6896 17.4998 5.5 17.6894 5.5 17.9232C5.5 17.974 5.50883 18.0245 5.5279 18.0715C5.98528 19.1992 7.14348 20 8.5 20Z" fill="black"/>
</svg>
