<svg width="17" height="21" viewBox="0 0 17 21" fill="none" xmlns="http://www.w3.org/2000/svg">
<path fill-rule="evenodd" clip-rule="evenodd" d="M2.22281 16.3002H13.7772C15.6056 16.3002 16.6492 14.4611 15.5522 13.1724C15.0666 12.6018 14.7673 11.9251 14.6867 11.2155L14.5227 9.76997C14.3512 9.78981 14.1767 9.8 13.9999 9.8C11.5147 9.8 9.49994 7.78528 9.49994 5.3C9.49994 4.32913 9.8074 3.43007 10.3303 2.69488C10.3102 2.6878 10.2901 2.68081 10.2699 2.67391V2.57019C10.2699 1.31654 9.25366 0.300247 8 0.300247C6.74634 0.300247 5.73005 1.31654 5.73005 2.57019V2.67391C3.58766 3.40744 2.0016 5.15088 1.76046 7.27543L1.31328 11.2155C1.23274 11.9251 0.933441 12.6018 0.447786 13.1724C-0.649243 14.4611 0.394434 16.3002 2.22281 16.3002ZM17 5.3C17 6.95686 15.6569 8.3 14 8.3C12.3431 8.3 11 6.95686 11 5.3C11 3.64315 12.3431 2.3 14 2.3C15.6569 2.3 17 3.64315 17 5.3ZM8 20.3002C9.35652 20.3002 10.5147 19.4995 10.9721 18.3718C10.9912 18.3247 11 18.2743 11 18.2235C11 17.9896 10.8104 17.8 10.5765 17.8H5.42349C5.1896 17.8 5 17.9896 5 18.2235C5 18.2743 5.00883 18.3247 5.0279 18.3718C5.48528 19.4995 6.64348 20.3002 8 20.3002Z" fill="white"/>
</svg>
